<?xml version="1.0" encoding="UTF-8" standalone="no"?>
<!DOCTYPE svg PUBLIC "-//W3C//DTD SVG 1.1//EN"
 "http://www.w3.org/Graphics/SVG/1.1/DTD/svg11.dtd">
<!-- Generated by graphviz version 2.40.1 (20161225.0304)
 -->
<!-- Title: dependencies Pages: 1 -->
<svg width="504pt" height="284pt"
 viewBox="0.00 0.00 504.00 284.00" xmlns="http://www.w3.org/2000/svg" xmlns:xlink="http://www.w3.org/1999/xlink">
<g id="graph0" class="graph" transform="scale(1 1) rotate(0) translate(4 280)">
<title>dependencies</title>
<polygon fill="#ffffff" stroke="transparent" points="-4,4 -4,-280 500,-280 500,4 -4,4"/>
<text text-anchor="start" x="227.0091" y="-42.4" font-family="sans-serif" font-weight="bold" font-size="14.00" fill="#000000">Legend</text>
<polygon fill="#ffffb3" stroke="transparent" points="14,-10 14,-30 34,-30 34,-10 14,-10"/>
<text text-anchor="start" x="37.629" y="-15.4" font-family="sans-serif" font-size="14.00" fill="#000000"> &#160;Declarations</text>
<polygon fill="#8dd3c7" stroke="transparent" points="127,-10 127,-30 147,-30 147,-10 127,-10"/>
<text text-anchor="start" x="150.7251" y="-15.4" font-family="sans-serif" font-size="14.00" fill="#000000"> &#160;Module</text>
<polygon fill="#80b1d3" stroke="transparent" points="213,-10 213,-30 233,-30 233,-10 213,-10"/>
<text text-anchor="start" x="236.7812" y="-15.4" font-family="sans-serif" font-size="14.00" fill="#000000"> &#160;Bootstrap</text>
<polygon fill="#fdb462" stroke="transparent" points="310,-10 310,-30 330,-30 330,-10 310,-10"/>
<text text-anchor="start" x="333.6732" y="-15.4" font-family="sans-serif" font-size="14.00" fill="#000000"> &#160;Providers</text>
<polygon fill="#fb8072" stroke="transparent" points="406,-10 406,-30 426,-30 426,-10 406,-10"/>
<text text-anchor="start" x="429.7258" y="-15.4" font-family="sans-serif" font-size="14.00" fill="#000000"> &#160;Exports</text>
<g id="clust1" class="cluster">
<title>cluster_SharedModule</title>
<polygon fill="none" stroke="#000000" stroke-dasharray="1,5" points="21,-70 21,-268 475,-268 475,-70 21,-70"/>
</g>
<g id="clust2" class="cluster">
<title>cluster_SharedModule_declarations</title>
<polygon fill="none" stroke="#000000" points="34,-78 34,-130 462,-130 462,-78 34,-78"/>
</g>
<g id="clust7" class="cluster">
<title>cluster_SharedModule_exports</title>
<polygon fill="none" stroke="#000000" points="29,-208 29,-260 467,-260 467,-208 29,-208"/>
</g>
<!-- CityCardComponent -->
<g id="node1" class="node">
<title>CityCardComponent</title>
<polygon fill="#ffffb3" stroke="#000000" points="454.1624,-122 321.8376,-122 321.8376,-86 454.1624,-86 454.1624,-122"/>
<text text-anchor="middle" x="388" y="-99.8" font-family="Times,serif" font-size="14.00" fill="#000000">CityCardComponent</text>
</g>
<!-- SharedModule -->
<g id="node4" class="node">
<title>SharedModule</title>
<polygon fill="#8dd3c7" stroke="#000000" points="276.4231,-187 273.4231,-191 252.4231,-191 249.4231,-187 177.5769,-187 177.5769,-151 276.4231,-151 276.4231,-187"/>
<text text-anchor="middle" x="227" y="-164.8" font-family="Times,serif" font-size="14.00" fill="#000000">SharedModule</text>
</g>
<!-- CityCardComponent&#45;&gt;SharedModule -->
<g id="edge1" class="edge">
<title>CityCardComponent&#45;&gt;SharedModule</title>
<path fill="none" stroke="#000000" d="M410.527,-122.0225C410.527,-139.3734 410.527,-163 410.527,-163 410.527,-163 286.665,-163 286.665,-163"/>
<polygon fill="#000000" stroke="#000000" points="286.6651,-159.5001 276.665,-163 286.665,-166.5001 286.6651,-159.5001"/>
</g>
<!-- CityForecastComponent -->
<g id="node2" class="node">
<title>CityForecastComponent</title>
<polygon fill="#ffffb3" stroke="#000000" points="303.3725,-122 150.6275,-122 150.6275,-86 303.3725,-86 303.3725,-122"/>
<text text-anchor="middle" x="227" y="-99.8" font-family="Times,serif" font-size="14.00" fill="#000000">CityForecastComponent</text>
</g>
<!-- CityForecastComponent&#45;&gt;SharedModule -->
<g id="edge2" class="edge">
<title>CityForecastComponent&#45;&gt;SharedModule</title>
<path fill="none" stroke="#000000" d="M227,-122.1061C227,-122.1061 227,-140.991 227,-140.991"/>
<polygon fill="#000000" stroke="#000000" points="223.5001,-140.9909 227,-150.991 230.5001,-140.991 223.5001,-140.9909"/>
</g>
<!-- TruncatePipe -->
<g id="node3" class="node">
<title>TruncatePipe</title>
<polygon fill="#ffffb3" stroke="#000000" points="132.1361,-122 41.8639,-122 41.8639,-86 132.1361,-86 132.1361,-122"/>
<text text-anchor="middle" x="87" y="-99.8" font-family="Times,serif" font-size="14.00" fill="#000000">TruncatePipe</text>
</g>
<!-- TruncatePipe&#45;&gt;SharedModule -->
<g id="edge3" class="edge">
<title>TruncatePipe&#45;&gt;SharedModule</title>
<path fill="none" stroke="#000000" d="M101.2726,-122.0225C101.2726,-139.3734 101.2726,-163 101.2726,-163 101.2726,-163 167.67,-163 167.67,-163"/>
<polygon fill="#000000" stroke="#000000" points="167.6701,-166.5001 177.67,-163 167.67,-159.5001 167.6701,-166.5001"/>
</g>
<!-- CityCardComponent  -->
<g id="node5" class="node">
<title>CityCardComponent </title>
<polygon fill="#fb8072" stroke="#000000" points="459.1621,-252 322.8379,-252 322.8379,-216 459.1621,-216 459.1621,-252"/>
<text text-anchor="middle" x="391" y="-229.8" font-family="Times,serif" font-size="14.00" fill="#000000">CityCardComponent </text>
</g>
<!-- SharedModule&#45;&gt;CityCardComponent  -->
<g id="edge4" class="edge">
<title>SharedModule&#45;&gt;CityCardComponent </title>
<path fill="none" stroke="#000000" stroke-dasharray="5,2" d="M276.2611,-175C316.4882,-175 366.723,-175 366.723,-175 366.723,-175 366.723,-205.9775 366.723,-205.9775"/>
<polygon fill="#000000" stroke="#000000" points="363.2231,-205.9774 366.723,-215.9775 370.2231,-205.9775 363.2231,-205.9774"/>
</g>
<!-- CityForecastComponent  -->
<g id="node6" class="node">
<title>CityForecastComponent </title>
<polygon fill="#fb8072" stroke="#000000" points="305.3728,-252 148.6272,-252 148.6272,-216 305.3728,-216 305.3728,-252"/>
<text text-anchor="middle" x="227" y="-229.8" font-family="Times,serif" font-size="14.00" fill="#000000">CityForecastComponent </text>
</g>
<!-- SharedModule&#45;&gt;CityForecastComponent  -->
<g id="edge5" class="edge">
<title>SharedModule&#45;&gt;CityForecastComponent </title>
<path fill="none" stroke="#000000" stroke-dasharray="5,2" d="M227,-187.1061C227,-187.1061 227,-205.991 227,-205.991"/>
<polygon fill="#000000" stroke="#000000" points="223.5001,-205.9909 227,-215.991 230.5001,-205.991 223.5001,-205.9909"/>
</g>
<!-- TruncatePipe  -->
<g id="node7" class="node">
<title>TruncatePipe </title>
<polygon fill="#fb8072" stroke="#000000" points="131.1355,-252 36.8645,-252 36.8645,-216 131.1355,-216 131.1355,-252"/>
<text text-anchor="middle" x="84" y="-229.8" font-family="Times,serif" font-size="14.00" fill="#000000">TruncatePipe </text>
</g>
<!-- SharedModule&#45;&gt;TruncatePipe  -->
<g id="edge6" class="edge">
<title>SharedModule&#45;&gt;TruncatePipe </title>
<path fill="none" stroke="#000000" stroke-dasharray="5,2" d="M177.3641,-175C131.8493,-175 71.4774,-175 71.4774,-175 71.4774,-175 71.4774,-205.9775 71.4774,-205.9775"/>
<polygon fill="#000000" stroke="#000000" points="67.9775,-205.9774 71.4774,-215.9775 74.9775,-205.9775 67.9775,-205.9774"/>
</g>
</g>
</svg>
