<?xml version="1.0" encoding="UTF-8" standalone="no"?>
<!DOCTYPE svg PUBLIC "-//W3C//DTD SVG 1.1//EN"
 "http://www.w3.org/Graphics/SVG/1.1/DTD/svg11.dtd">
<!-- Generated by graphviz version 2.40.1 (20161225.0304)
 -->
<!-- Title: dependencies Pages: 1 -->
<svg width="1326pt" height="360pt"
 viewBox="0.00 0.00 1326.00 360.00" xmlns="http://www.w3.org/2000/svg" xmlns:xlink="http://www.w3.org/1999/xlink">
<g id="graph0" class="graph" transform="scale(1 1) rotate(0) translate(4 356)">
<title>dependencies</title>
<polygon fill="#ffffff" stroke="transparent" points="-4,4 -4,-356 1322,-356 1322,4 -4,4"/>
<text text-anchor="start" x="638.0091" y="-42.4" font-family="sans-serif" font-weight="bold" font-size="14.00" fill="#000000">Legend</text>
<polygon fill="#ffffb3" stroke="transparent" points="425,-10 425,-30 445,-30 445,-10 425,-10"/>
<text text-anchor="start" x="448.629" y="-15.4" font-family="sans-serif" font-size="14.00" fill="#000000"> &#160;Declarations</text>
<polygon fill="#8dd3c7" stroke="transparent" points="538,-10 538,-30 558,-30 558,-10 538,-10"/>
<text text-anchor="start" x="561.7251" y="-15.4" font-family="sans-serif" font-size="14.00" fill="#000000"> &#160;Module</text>
<polygon fill="#80b1d3" stroke="transparent" points="624,-10 624,-30 644,-30 644,-10 624,-10"/>
<text text-anchor="start" x="647.7812" y="-15.4" font-family="sans-serif" font-size="14.00" fill="#000000"> &#160;Bootstrap</text>
<polygon fill="#fdb462" stroke="transparent" points="721,-10 721,-30 741,-30 741,-10 721,-10"/>
<text text-anchor="start" x="744.6732" y="-15.4" font-family="sans-serif" font-size="14.00" fill="#000000"> &#160;Providers</text>
<polygon fill="#fb8072" stroke="transparent" points="817,-10 817,-30 837,-30 837,-10 817,-10"/>
<text text-anchor="start" x="840.7258" y="-15.4" font-family="sans-serif" font-size="14.00" fill="#000000"> &#160;Exports</text>
<g id="clust1" class="cluster">
<title>cluster_AppModule</title>
<polygon fill="none" stroke="#000000" stroke-dasharray="1,5" points="8,-146 8,-344 412,-344 412,-146 8,-146"/>
</g>
<g id="clust2" class="cluster">
<title>cluster_AppModule_declarations</title>
<polygon fill="none" stroke="#000000" points="282,-154 282,-206 404,-206 404,-154 282,-154"/>
</g>
<g id="clust4" class="cluster">
<title>cluster_AppModule_imports</title>
<polygon fill="none" stroke="#000000" points="16,-154 16,-206 274,-206 274,-154 16,-154"/>
</g>
<g id="clust6" class="cluster">
<title>cluster_AppModule_bootstrap</title>
<polygon fill="none" stroke="#000000" points="140,-284 140,-336 264,-336 264,-284 140,-284"/>
</g>
<g id="clust20" class="cluster">
<title>cluster_PublicModule</title>
<polygon fill="none" stroke="#000000" stroke-dasharray="1,5" points="503,-70 503,-138 773,-138 773,-70 503,-70"/>
</g>
<g id="clust21" class="cluster">
<title>cluster_PublicModule_declarations</title>
<polygon fill="none" stroke="#000000" points="511,-78 511,-130 643,-130 643,-78 511,-78"/>
</g>
<g id="clust23" class="cluster">
<title>cluster_PublicModule_imports</title>
<polygon fill="none" stroke="#000000" points="651,-78 651,-130 765,-130 765,-78 651,-78"/>
</g>
<g id="clust27" class="cluster">
<title>cluster_SharedModule</title>
<polygon fill="none" stroke="#000000" stroke-dasharray="1,5" points="420,-146 420,-214 1310,-214 1310,-146 420,-146"/>
</g>
<g id="clust28" class="cluster">
<title>cluster_SharedModule_declarations</title>
<polygon fill="none" stroke="#000000" points="874,-154 874,-206 1302,-206 1302,-154 874,-154"/>
</g>
<g id="clust33" class="cluster">
<title>cluster_SharedModule_exports</title>
<polygon fill="none" stroke="#000000" points="428,-154 428,-206 866,-206 866,-154 428,-154"/>
</g>
<!-- AppComponent -->
<g id="node1" class="node">
<title>AppComponent</title>
<polygon fill="#ffffb3" stroke="#000000" points="395.9399,-198 290.0601,-198 290.0601,-162 395.9399,-162 395.9399,-198"/>
<text text-anchor="middle" x="343" y="-175.8" font-family="Times,serif" font-size="14.00" fill="#000000">AppComponent</text>
</g>
<!-- AppModule -->
<g id="node2" class="node">
<title>AppModule</title>
<polygon fill="#8dd3c7" stroke="#000000" points="243.6571,-263 240.6571,-267 219.6571,-267 216.6571,-263 160.3429,-263 160.3429,-227 243.6571,-227 243.6571,-263"/>
<text text-anchor="middle" x="202" y="-240.8" font-family="Times,serif" font-size="14.00" fill="#000000">AppModule</text>
</g>
<!-- AppComponent&#45;&gt;AppModule -->
<g id="edge1" class="edge">
<title>AppComponent&#45;&gt;AppModule</title>
<path fill="none" stroke="#000000" d="M343,-198.1061C343,-217.3391 343,-245 343,-245 343,-245 253.9229,-245 253.9229,-245"/>
<polygon fill="#000000" stroke="#000000" points="253.9229,-241.5001 243.9229,-245 253.9229,-248.5001 253.9229,-241.5001"/>
</g>
<!-- AppComponent  -->
<g id="node5" class="node">
<title>AppComponent </title>
<polygon fill="#80b1d3" stroke="#000000" points="256.439,-328 147.561,-328 147.561,-292 256.439,-292 256.439,-328"/>
<text text-anchor="middle" x="202" y="-305.8" font-family="Times,serif" font-size="14.00" fill="#000000">AppComponent </text>
</g>
<!-- AppModule&#45;&gt;AppComponent  -->
<g id="edge4" class="edge">
<title>AppModule&#45;&gt;AppComponent </title>
<path fill="none" stroke="#000000" stroke-dasharray="1,5" d="M202,-263.1061C202,-263.1061 202,-281.991 202,-281.991"/>
<polygon fill="#000000" stroke="#000000" points="198.5001,-281.9909 202,-291.991 205.5001,-281.991 198.5001,-281.9909"/>
</g>
<!-- AppRoutingModule -->
<g id="node3" class="node">
<title>AppRoutingModule</title>
<polygon fill="#8dd3c7" stroke="#000000" points="266.2744,-198 263.2744,-202 242.2744,-202 239.2744,-198 137.7256,-198 137.7256,-162 266.2744,-162 266.2744,-198"/>
<text text-anchor="middle" x="202" y="-175.8" font-family="Times,serif" font-size="14.00" fill="#000000">AppRoutingModule</text>
</g>
<!-- AppRoutingModule&#45;&gt;AppModule -->
<g id="edge2" class="edge">
<title>AppRoutingModule&#45;&gt;AppModule</title>
<path fill="none" stroke="#000000" d="M202,-198.1061C202,-198.1061 202,-216.991 202,-216.991"/>
<polygon fill="#000000" stroke="#000000" points="198.5001,-216.9909 202,-226.991 205.5001,-216.991 198.5001,-216.9909"/>
</g>
<!-- PublicModule -->
<g id="node4" class="node">
<title>PublicModule</title>
<polygon fill="#8dd3c7" stroke="#000000" points="119.8288,-198 116.8288,-202 95.8288,-202 92.8288,-198 24.1712,-198 24.1712,-162 119.8288,-162 119.8288,-198"/>
<text text-anchor="middle" x="72" y="-175.8" font-family="Times,serif" font-size="14.00" fill="#000000">PublicModule</text>
</g>
<!-- PublicModule&#45;&gt;AppModule -->
<g id="edge3" class="edge">
<title>PublicModule&#45;&gt;AppModule</title>
<path fill="none" stroke="#000000" d="M72,-198.1061C72,-217.3391 72,-245 72,-245 72,-245 150.1516,-245 150.1516,-245"/>
<polygon fill="#000000" stroke="#000000" points="150.1516,-248.5001 160.1516,-245 150.1516,-241.5001 150.1516,-248.5001"/>
</g>
<!-- HomeComponent -->
<g id="node6" class="node">
<title>HomeComponent</title>
<polygon fill="#ffffb3" stroke="#000000" points="634.5451,-122 519.4549,-122 519.4549,-86 634.5451,-86 634.5451,-122"/>
<text text-anchor="middle" x="577" y="-99.8" font-family="Times,serif" font-size="14.00" fill="#000000">HomeComponent</text>
</g>
<!-- HomeComponent&#45;&gt;PublicModule -->
<g id="edge5" class="edge">
<title>HomeComponent&#45;&gt;PublicModule</title>
<path fill="none" stroke="#000000" d="M519.2657,-104C383.6461,-104 56.112,-104 56.112,-104 56.112,-104 56.112,-151.9891 56.112,-151.9891"/>
<polygon fill="#000000" stroke="#000000" points="52.6121,-151.989 56.112,-161.9891 59.6121,-151.9891 52.6121,-151.989"/>
</g>
<!-- SharedModule -->
<g id="node7" class="node">
<title>SharedModule</title>
<polygon fill="#8dd3c7" stroke="#000000" points="757.4231,-122 754.4231,-126 733.4231,-126 730.4231,-122 658.5769,-122 658.5769,-86 757.4231,-86 757.4231,-122"/>
<text text-anchor="middle" x="708" y="-99.8" font-family="Times,serif" font-size="14.00" fill="#000000">SharedModule</text>
</g>
<!-- SharedModule&#45;&gt;PublicModule -->
<g id="edge6" class="edge">
<title>SharedModule&#45;&gt;PublicModule</title>
<path fill="none" stroke="#000000" d="M670.1382,-122.2434C670.1382,-129.4297 670.1382,-136 670.1382,-136 670.1382,-136 87.888,-136 87.888,-136 87.888,-136 87.888,-151.8495 87.888,-151.8495"/>
<polygon fill="#000000" stroke="#000000" points="84.3881,-151.8494 87.888,-161.8495 91.3881,-151.8495 84.3881,-151.8494"/>
</g>
<!-- CityCardComponent  -->
<g id="node11" class="node">
<title>CityCardComponent </title>
<polygon fill="#fb8072" stroke="#000000" points="858.1621,-198 721.8379,-198 721.8379,-162 858.1621,-162 858.1621,-198"/>
<text text-anchor="middle" x="790" y="-175.8" font-family="Times,serif" font-size="14.00" fill="#000000">CityCardComponent </text>
</g>
<!-- SharedModule&#45;&gt;CityCardComponent  -->
<g id="edge10" class="edge">
<title>SharedModule&#45;&gt;CityCardComponent </title>
<path fill="none" stroke="#000000" stroke-dasharray="5,2" d="M739.565,-122.0109C739.565,-122.0109 739.565,-151.855 739.565,-151.855"/>
<polygon fill="#000000" stroke="#000000" points="736.0651,-151.8549 739.565,-161.855 743.0651,-151.855 736.0651,-151.8549"/>
</g>
<!-- CityForecastComponent  -->
<g id="node12" class="node">
<title>CityForecastComponent </title>
<polygon fill="#fb8072" stroke="#000000" points="704.3728,-198 547.6272,-198 547.6272,-162 704.3728,-162 704.3728,-198"/>
<text text-anchor="middle" x="626" y="-175.8" font-family="Times,serif" font-size="14.00" fill="#000000">CityForecastComponent </text>
</g>
<!-- SharedModule&#45;&gt;CityForecastComponent  -->
<g id="edge11" class="edge">
<title>SharedModule&#45;&gt;CityForecastComponent </title>
<path fill="none" stroke="#000000" stroke-dasharray="5,2" d="M692.8369,-122.0109C692.8369,-122.0109 692.8369,-151.855 692.8369,-151.855"/>
<polygon fill="#000000" stroke="#000000" points="689.337,-151.8549 692.8369,-161.855 696.337,-151.855 689.337,-151.8549"/>
</g>
<!-- TruncatePipe  -->
<g id="node13" class="node">
<title>TruncatePipe </title>
<polygon fill="#fb8072" stroke="#000000" points="530.1355,-198 435.8645,-198 435.8645,-162 530.1355,-162 530.1355,-198"/>
<text text-anchor="middle" x="483" y="-175.8" font-family="Times,serif" font-size="14.00" fill="#000000">TruncatePipe </text>
</g>
<!-- SharedModule&#45;&gt;TruncatePipe  -->
<g id="edge12" class="edge">
<title>SharedModule&#45;&gt;TruncatePipe </title>
<path fill="none" stroke="#000000" stroke-dasharray="5,2" d="M681.4876,-122.0439C681.4876,-134.5633 681.4876,-149 681.4876,-149 681.4876,-149 524.6478,-149 524.6478,-149 524.6478,-149 524.6478,-151.9672 524.6478,-151.9672"/>
<polygon fill="#000000" stroke="#000000" points="521.1479,-151.9671 524.6478,-161.9672 528.1479,-151.9672 521.1479,-151.9671"/>
</g>
<!-- CityCardComponent -->
<g id="node8" class="node">
<title>CityCardComponent</title>
<polygon fill="#ffffb3" stroke="#000000" points="1294.1624,-198 1161.8376,-198 1161.8376,-162 1294.1624,-162 1294.1624,-198"/>
<text text-anchor="middle" x="1228" y="-175.8" font-family="Times,serif" font-size="14.00" fill="#000000">CityCardComponent</text>
</g>
<!-- CityCardComponent&#45;&gt;SharedModule -->
<g id="edge7" class="edge">
<title>CityCardComponent&#45;&gt;SharedModule</title>
<path fill="none" stroke="#000000" d="M1228,-161.9737C1228,-137.0227 1228,-95 1228,-95 1228,-95 767.3891,-95 767.3891,-95"/>
<polygon fill="#000000" stroke="#000000" points="767.3892,-91.5001 757.3891,-95 767.3891,-98.5001 767.3892,-91.5001"/>
</g>
<!-- CityForecastComponent -->
<g id="node9" class="node">
<title>CityForecastComponent</title>
<polygon fill="#ffffb3" stroke="#000000" points="1143.3725,-198 990.6275,-198 990.6275,-162 1143.3725,-162 1143.3725,-198"/>
<text text-anchor="middle" x="1067" y="-175.8" font-family="Times,serif" font-size="14.00" fill="#000000">CityForecastComponent</text>
</g>
<!-- CityForecastComponent&#45;&gt;SharedModule -->
<g id="edge8" class="edge">
<title>CityForecastComponent&#45;&gt;SharedModule</title>
<path fill="none" stroke="#000000" d="M1067,-161.9891C1067,-139.5148 1067,-104 1067,-104 1067,-104 767.5405,-104 767.5405,-104"/>
<polygon fill="#000000" stroke="#000000" points="767.5405,-100.5001 757.5405,-104 767.5405,-107.5001 767.5405,-100.5001"/>
</g>
<!-- TruncatePipe -->
<g id="node10" class="node">
<title>TruncatePipe</title>
<polygon fill="#ffffb3" stroke="#000000" points="972.1361,-198 881.8639,-198 881.8639,-162 972.1361,-162 972.1361,-198"/>
<text text-anchor="middle" x="927" y="-175.8" font-family="Times,serif" font-size="14.00" fill="#000000">TruncatePipe</text>
</g>
<!-- TruncatePipe&#45;&gt;SharedModule -->
<g id="edge9" class="edge">
<title>TruncatePipe&#45;&gt;SharedModule</title>
<path fill="none" stroke="#000000" d="M927,-161.692C927,-141.8545 927,-113 927,-113 927,-113 767.4209,-113 767.4209,-113"/>
<polygon fill="#000000" stroke="#000000" points="767.421,-109.5001 757.4209,-113 767.4209,-116.5001 767.421,-109.5001"/>
</g>
</g>
</svg>
